<svg width="56" height="50" viewBox="0 0 56 50" fill="none" xmlns="http://www.w3.org/2000/svg">
<path d="M29.3954 41.2081H32.6495V44.1387H29.3954V41.2081Z" fill="#ABBA16"/>
<path d="M22.8872 41.2081H26.1413V44.1387H22.8872V41.2081Z" fill="#ABBA16"/>
<path d="M49.779 15.0275C55.4644 9.86716 55.5367 2.84633 55.5367 2.52367L55.5366 9.76881e-05L53.103 1.25109C49.7892 2.95447 40.7041 7.23594 36.5101 7.66879C35.1389 6.53747 33.3144 5.84506 31.3127 5.84506H24.2238C22.2221 5.84506 20.3976 6.53757 19.0264 7.66879C14.8325 7.23594 5.7474 2.95447 2.43375 1.25109L0 0V2.52357C0 2.84633 0.0723496 9.86716 5.75781 15.0275C3.74623 16.3771 2.46639 17.9814 2.3755 18.097L1.71036 18.9434L2.3755 19.7899C2.53408 19.9916 6.31503 24.7306 11.2889 24.7306C11.8479 24.7306 12.412 24.6703 12.9788 24.5522C13.1648 27.036 13.8857 29.4959 15.1462 31.7838C15.1976 31.8771 15.248 31.9709 15.2975 32.0652C16.7551 34.8437 17.1926 38.091 16.5297 41.2087L16.3095 42.2445C15.9016 44.1626 16.4601 46.126 17.8418 47.6314C19.2236 49.1366 21.2598 50 23.4285 50H32.1084C34.277 50 36.3133 49.1367 37.695 47.6314C39.0767 46.126 39.6352 44.1627 39.2274 42.2445L39.0072 41.2086C38.3443 38.0911 38.7819 34.8438 40.2395 32.0649C40.2889 31.9708 40.3393 31.8769 40.3909 31.7833C41.6514 29.4956 42.372 27.0358 42.5582 24.5521C43.1249 24.6702 43.6893 24.7305 44.2482 24.7305C49.222 24.7305 53.003 19.9915 53.1616 19.7898L53.8267 18.9433L53.1616 18.0969C53.0706 17.9815 51.7906 16.3771 49.779 15.0275ZM46.774 13.5542C45.9788 13.3068 45.1324 13.1564 44.2481 13.1564C42.8722 13.1564 41.4812 13.5118 40.0947 14.2118C40.0789 14.1852 40.0642 14.158 40.0482 14.1314L39.004 12.3918C38.9586 11.659 38.7844 10.957 38.5046 10.3017C42.7028 9.3924 48.4615 6.82897 51.9017 5.18586C51.354 7.52881 50.0198 10.9594 46.774 13.5542ZM3.63484 5.18567C7.07497 6.82887 12.8339 9.3924 17.0321 10.3017C16.7525 10.957 16.5781 11.659 16.5327 12.3918L15.4886 14.1314C15.4726 14.158 15.4579 14.1851 15.4421 14.2117C14.0557 13.5118 12.6648 13.1564 11.289 13.1564C10.4047 13.1564 9.55828 13.3068 8.76298 13.5543C5.51647 10.9591 4.18239 7.52803 3.63484 5.18567ZM5.80565 18.9489C6.90185 17.8562 9.02667 16.0871 11.2889 16.0871C12.1824 16.0871 13.1335 16.3643 14.1264 16.9119C13.5506 18.3942 13.183 19.927 13.0233 21.4743C12.4225 21.6892 11.8414 21.8 11.2889 21.8C9.15141 21.7999 7.01921 20.1548 5.80565 18.9489ZM16.3252 21.2278L16.955 21.655C18.6567 22.8093 19.8765 24.3916 20.4826 26.2308C21.0888 28.0699 21.0253 29.9954 20.2988 31.7989L19.4676 33.862C19.1659 32.8187 18.7569 31.7992 18.2399 30.8138C18.1814 30.7022 18.1216 30.5912 18.0608 30.4808C16.464 27.5825 15.8895 24.3585 16.3252 21.2278ZM35.187 45.7641C34.4255 46.5935 33.3035 47.0693 32.1084 47.0693H23.4285C22.2335 47.0693 21.1114 46.5935 20.35 45.7641C19.5885 44.9346 19.2808 43.8526 19.5055 42.7956L19.7014 41.8744L23.3579 32.7985C24.3237 30.4011 24.4083 27.8416 23.6024 25.3968C22.7964 22.952 21.1749 20.8487 18.9131 19.3142L17.1161 18.095C17.4427 17.215 17.8534 16.3545 18.3514 15.525L19.775 13.1533V12.7826C19.775 10.5732 21.7708 8.7756 24.2242 8.7756H31.3132C33.7664 8.7756 35.7624 10.5731 35.7624 12.7826V13.1533L37.186 15.525C37.6839 16.3546 38.0947 17.215 38.4213 18.095L36.6243 19.3142C34.3624 20.8487 32.7409 22.952 31.935 25.3968C31.1292 27.8416 31.2137 30.4011 32.1795 32.7985L35.8359 41.8745L36.0318 42.7958C36.2561 43.8527 35.9482 44.9346 35.187 45.7641ZM37.4762 30.4802C37.4152 30.5909 37.3554 30.702 37.297 30.8135C36.7801 31.7991 36.3709 32.8187 36.0693 33.8622L35.2381 31.799C34.5115 29.9955 34.448 28.07 35.0542 26.2309C35.6604 24.3917 36.8803 22.8094 38.5819 21.6551L39.2116 21.2279C39.6474 24.3584 39.0728 27.5823 37.4762 30.4802ZM44.2481 21.7999C43.6956 21.7999 43.1143 21.6891 42.5135 21.4741C42.3537 19.9269 41.9862 18.3942 41.4103 16.9119C42.4034 16.3643 43.3544 16.087 44.2481 16.087C46.3855 16.087 48.5177 17.7322 49.7313 18.9381C48.635 20.0308 46.5102 21.7999 44.2481 21.7999Z" fill="#ABBA16"/>
</svg>
