<svg width="134" height="29" viewBox="0 0 134 29" fill="none" xmlns="http://www.w3.org/2000/svg">
<path fill-rule="evenodd" clip-rule="evenodd" d="M76.8552 0.785093C69.1987 1.72167 63.7253 8.53097 64.6001 16.335C65.0683 20.5136 67.2289 23.6761 69.4031 25.5049C71.8936 27.5984 75.4115 29.2604 79.859 28.7592C86.9323 27.9626 92.9295 21.4908 92.0607 13.2292C91.6526 9.34053 89.9204 6.48413 87.269 4.05087C85.0099 1.978 81.0344 0.27319 76.8552 0.785093ZM76.8973 1.09269C84.0262 0.176012 90.9297 5.62177 91.7571 13.3003C92.6258 21.3691 86.7046 27.6451 79.8034 28.4485C74.3105 29.0874 69.1325 26.2035 66.5255 21.4517C65.7071 19.9612 65.1232 18.251 64.9045 16.2776C64.2867 10.6888 67.0794 5.41747 71.7869 2.73629C73.3298 1.85787 74.8794 1.35209 76.8973 1.09269Z" fill="#ABBA16"/>
<path fill-rule="evenodd" clip-rule="evenodd" d="M77.8226 1.71081C67.1382 1.99469 60.9254 15.7633 69.5611 24.2912C73.3097 27.9923 79.2467 28.873 83.9662 26.5148C88.4701 24.2651 91.3026 19.5195 91.1305 14.2237C91.0395 11.4301 90.131 9.13685 88.6512 7.02879C88.3867 6.65232 88.1958 6.47403 87.9343 6.13889C86.7972 4.68582 84.944 3.47072 83.2425 2.70554C81.6576 1.9924 79.7209 1.66031 77.8226 1.71081ZM78.0916 13.216C78.1532 13.3285 78.1262 13.193 78.1269 13.3683L77.8699 14.3676C77.7775 14.7762 77.6955 15.2345 77.6039 15.6569C77.2319 15.0524 76.8929 13.6453 76.7704 12.8135C76.5638 11.4079 76.7546 10.6909 76.8208 9.39165C76.5765 9.88519 76.4879 10.6366 76.4059 11.2725C75.9468 10.8011 75.8521 10.3864 75.1569 10.0772C75.8431 10.6473 76.191 11.3604 76.2466 12.5763C76.312 13.998 76.5239 14.4617 76.8163 15.6707C76.324 15.3784 76.061 15.0777 75.683 14.6392C73.8936 12.5694 73.3315 13.9529 72.6265 11.1806C72.5935 12.1891 72.8287 12.2833 73.0677 13.0163C72.4913 13.0262 71.9156 12.9666 71.4692 13.2305C72.6258 13.3667 73.4329 13.4716 74.2476 14.0707C75.8904 15.2774 77.906 18.6801 78.0375 21.0445C77.5129 20.7882 77.0004 19.6106 74.6737 18.7528C73.9131 18.472 73.2789 18.3832 72.6431 17.9792C72.2658 17.739 71.5211 16.9845 71.5301 16.442C71.5248 17.0817 72.117 17.8996 72.4124 18.1269L69.9925 18.2302C71.5789 18.3748 72.3695 18.2241 73.8064 18.8255C74.7751 19.2311 75.949 19.9442 76.5081 20.538C76.8651 20.9167 77.9916 21.8778 77.7978 22.4915L76.8351 24.9331C76.5149 25.7412 76.563 25.7878 76.4706 26.7443C74.5444 26.6816 71.3414 24.9691 69.8722 23.3194C67.7995 20.9933 66.044 17.9479 66.4505 13.7983C66.7489 10.7506 68.0272 7.83528 70.1848 5.89939C73.6118 2.82567 78.5388 1.51722 83.1245 3.65359C84.6133 4.34761 85.5444 5.04851 86.5815 5.97437C86.7296 6.10675 86.7904 6.20699 86.9212 6.3539C94.2756 14.64 88.398 25.9615 79.8239 26.8048C79.4669 25.2507 79.6119 24.5597 80.0335 23.0745C80.4874 21.4738 80.7362 21.3506 81.7583 20.528C84.1549 18.599 85.2153 18.6312 87.5307 17.7994C86.6537 17.7627 85.9916 17.9287 85.1627 18.0473C85.5888 17.3158 85.7917 17.2118 85.8819 16.1811C85.6902 18.1246 83.5116 18.4475 81.5103 19.7085C80.9504 20.0605 80.5077 20.4354 80.0373 20.7553C79.0671 18.8393 80.4363 18.2294 81.8071 16.1933C82.1821 15.6355 82.7014 14.6025 82.8547 13.7631C83.0885 12.4876 83.3823 12.2848 84.1707 11.6084C83.5349 11.8043 83.3192 12.1769 82.9727 12.5029L82.8307 11.5112C82.7578 13.0347 82.7104 14.4831 81.2961 15.7426C81.5794 13.8258 81.4967 13.6567 80.8482 12.108C81.4772 14.0462 80.9406 15.8505 79.7307 17.3265L78.6643 18.5118C78.5192 17.6073 78.4238 16.6019 78.4268 15.6653C78.429 15.1603 78.5703 13.6284 78.898 13.1617C78.9679 12.4845 79.7059 11.2602 80.0155 10.7942L81.2164 9.33962C81.4449 9.12919 81.4817 9.1598 81.6313 8.90806C81.3397 9.07793 80.6994 9.59366 80.5348 9.77653C80.5386 9.39242 80.6002 9.13226 80.5408 8.70682C80.4935 8.36172 80.3146 8.08626 80.2958 7.83681C80.3807 8.44207 80.5333 8.75196 80.3266 9.485C79.9509 10.8187 78.3524 12.1493 78.302 13.0301L78.3058 11.6505C77.7271 11.8586 77.1695 12.522 77.4611 13.3178C77.6009 13.1425 77.667 12.8227 77.7632 12.587L77.6407 13.3889C77.9368 13.3514 77.8947 13.3905 78.0916 13.216Z" fill="#293737"/>
<path fill-rule="evenodd" clip-rule="evenodd" d="M82.5553 9.26243C83.152 9.00303 83.7893 8.36718 84.879 8.29219C84.1117 8.61968 83.1776 8.91963 82.7319 9.49427C83.9877 10.8012 85.1683 8.99691 85.6147 8.62121C85.9627 8.32968 86.2445 8.2723 86.5571 8.04045C85.7883 7.76422 84.9699 7.46351 84.0335 7.65633C83.1926 7.83003 82.4869 8.29831 82.5553 9.26243Z" fill="#ABBA16"/>
<path fill-rule="evenodd" clip-rule="evenodd" d="M83.1816 20.1132C84.5711 19.9594 84.7357 20.1324 85.8856 20.3428C84.7523 20.313 84.5013 20.0933 83.2237 20.3971C84.1834 22.356 85.3625 20.7376 87.1744 20.844C86.0494 19.195 83.4611 18.6709 83.1816 20.1132Z" fill="#ABBA16"/>
<path fill-rule="evenodd" clip-rule="evenodd" d="M70.517 9.16291L70.6335 9.22795C70.6477 9.23331 70.6763 9.24861 70.6936 9.25473L71.01 9.33814C71.1948 9.38405 71.3294 9.43072 71.4827 9.49806C72.3274 9.86687 73.2172 10.8723 74.0032 9.35344C73.5508 9.04967 72.513 8.88745 71.9148 8.8951C72.8722 8.84537 73.1683 8.90046 74.0205 9.07262C73.7943 8.39851 73.1548 8.15978 72.2875 8.27149C71.3917 8.38627 71.0378 8.88057 70.517 9.16291Z" fill="#ABBA16"/>
<path fill-rule="evenodd" clip-rule="evenodd" d="M86.2486 17.0343C86.7191 16.6043 86.7889 16.2561 87.4322 15.8904C87.1752 16.3158 86.6161 16.6433 86.4613 17.2853C88.1214 17.8546 87.7554 16.7918 89.0585 14.9791C87.6329 14.8566 85.9615 15.5866 86.2486 17.0343Z" fill="#ABBA16"/>
<path fill-rule="evenodd" clip-rule="evenodd" d="M79.7426 7.17962C79.7749 6.77178 79.2338 5.963 79.0632 5.68677C79.56 6.10761 79.6253 6.42899 79.8688 6.8001L80.0349 7.00746C80.2483 6.14128 79.9305 5.73727 79.4555 5.27434C79.0632 4.89252 78.4312 4.54666 77.7292 4.55814C78.6243 5.98595 77.9915 7.53619 79.7426 7.17962Z" fill="#ABBA16"/>
<path fill-rule="evenodd" clip-rule="evenodd" d="M83.3371 14.529C83.8842 15.0486 83.6798 14.581 84.8326 15.8558C84.7169 15.5421 83.6497 14.9147 83.1387 14.7127C82.6306 16.191 84.1307 16.2376 84.7364 16.4588C85.0911 16.5881 85.2692 16.7664 85.5405 16.8796C85.4383 14.4693 83.3829 14.1059 83.3371 14.529Z" fill="#ABBA16"/>
<path fill-rule="evenodd" clip-rule="evenodd" d="M77.928 11.1731C78.0332 10.6597 77.9686 10.2159 77.9363 9.70014L77.9949 9.82563C78.0971 10.1042 78.1467 10.3437 78.1588 11.0966C79.1087 10.5311 78.4549 8.65874 77.2276 8.01294C77.3794 9.40249 76.3401 10.8357 77.928 11.1731Z" fill="#ABBA16"/>
<path fill-rule="evenodd" clip-rule="evenodd" d="M69.1005 11.5242C69.8986 11.9068 69.9362 11.9665 70.4923 12.4554C71.077 12.9696 71.7902 12.8181 72.0757 12.1509C71.7158 12.017 71.0687 11.7147 70.6704 11.5387C71.2761 11.5632 71.6181 11.7622 72.1313 11.968C71.948 10.9404 70.717 10.8409 69.8753 11.0995L69.1005 11.5242Z" fill="#ABBA16"/>
<path fill-rule="evenodd" clip-rule="evenodd" d="M68.3986 15.9356C68.9382 16.4514 69.0021 16.3978 69.4816 17.1385C69.8333 17.6818 70.4037 17.9488 71.0229 17.3711C70.8613 17.0122 70.1316 16.4934 69.7731 16.3435C70.4428 16.4797 70.7494 16.9487 71.18 17.1492C71.1349 15.8262 69.6041 15.6074 68.3986 15.9356Z" fill="#ABBA16"/>
<path fill-rule="evenodd" clip-rule="evenodd" d="M74.8559 23.0128C75.4015 21.5169 76.6213 22.0916 76.4394 20.6492C75.9103 20.7938 75.382 21.3172 75.1806 21.7289C75.4369 21.0295 76.0351 20.7204 76.2523 20.451C74.8965 19.1862 74.2141 22.1023 74.8559 23.0128Z" fill="#ABBA16"/>
<path fill-rule="evenodd" clip-rule="evenodd" d="M75.8016 18.994C75.9594 18.4163 75.9624 18.2518 75.9669 17.5938C76.1195 18.0169 76.0473 18.5418 75.9797 19.0246C76.9296 18.9229 77.0295 18.2472 76.6297 17.4117C76.3412 16.8095 75.8016 16.4307 75.3356 16.1047C75.3597 16.7406 75.5415 16.9196 75.3725 17.6795C75.2199 18.3658 75.2109 18.7668 75.8016 18.994Z" fill="#ABBA16"/>
<path fill-rule="evenodd" clip-rule="evenodd" d="M75.4676 13.9798C75.4999 13.2131 75.3593 12.7027 75.3586 12.1457C75.3586 12.151 75.6216 13.5475 75.6569 13.9331C76.4581 13.4227 76.0064 11.7286 74.7867 11.0698C74.919 12.3492 73.9623 13.7808 75.4676 13.9798Z" fill="#ABBA16"/>
<path fill-rule="evenodd" clip-rule="evenodd" d="M84.8145 11.9374L86.3889 11.8509C85.8629 11.9305 85.2414 11.8991 84.8318 12.1738C85.2752 13.5534 86.3942 12.2756 87.4659 12.193C87.3313 11.9435 87.4418 12.0851 87.2224 11.8938C87.1803 11.8571 87.0232 11.7461 86.9398 11.6956C86.2183 11.2564 85.1136 11.1386 84.8145 11.9374Z" fill="#ABBA16"/>
<path fill-rule="evenodd" clip-rule="evenodd" d="M76.0838 9.45757C76.1019 9.09794 75.8764 8.85003 75.7735 8.50187L76.0417 8.83472C76.1379 9.00077 76.183 9.12778 76.2371 9.28005C76.2371 9.27929 76.3799 9.2395 76.4122 8.91966C76.4851 8.20728 75.569 7.40231 74.5613 7.26611C74.7897 7.88897 74.8281 8.05348 74.9941 8.75514C75.1324 9.34127 75.4142 9.55552 76.0838 9.45757Z" fill="#ABBA16"/>
<path fill-rule="evenodd" clip-rule="evenodd" d="M71.1381 21.0715C71.462 20.6507 71.498 20.451 71.9166 20.1655C72.3495 19.8702 72.6824 19.8296 72.5689 19.0974C72.2638 19.0737 72.1158 19.2665 71.861 19.418C72.0414 19.1104 72.2029 19.0538 72.4081 18.8671C71.2282 17.8616 70.7713 19.9192 71.1381 21.0715Z" fill="#ABBA16"/>
<path fill-rule="evenodd" clip-rule="evenodd" d="M71.3842 15.6402C71.8456 15.4137 71.9095 15.23 72.5265 15.1076C73.1029 14.9936 73.4095 14.9653 73.4012 14.3004C72.8511 14.3394 72.7286 14.4572 72.31 14.6011C72.7406 14.2851 72.8361 14.344 73.3223 14.1228C73.0503 13.1442 71.6254 13.6002 71.3842 15.6402Z" fill="#ABBA16"/>
<path fill-rule="evenodd" clip-rule="evenodd" d="M80.86 19.3467L81.5116 18.2088C81.3575 18.6496 81.1704 18.9006 81.0885 19.4821C82.3187 19.4676 81.9182 18.8118 82.3991 17.2026C81.5386 17.3916 80.5038 18.2616 80.86 19.3467Z" fill="#ABBA16"/>
<path fill-rule="evenodd" clip-rule="evenodd" d="M79.2179 16.5422C79.2772 16.4412 79.6289 15.4312 79.6613 15.3042L79.3727 16.6264C80.6262 16.7603 80.1633 15.3448 80.3519 14.3003C79.7514 14.4916 78.4017 15.849 79.2179 16.5422Z" fill="#ABBA16"/>
<path fill-rule="evenodd" clip-rule="evenodd" d="M81.5212 21.2694C81.5385 21.2809 81.5656 21.2756 81.5746 21.3008L81.7369 21.385C82.0435 21.5204 82.166 21.5082 82.4884 21.7507C82.0774 21.6275 81.8812 21.5143 81.3754 21.4799C81.4378 22.7608 82.3937 22.3246 83.5466 22.5947C83.4256 22.0767 83.1423 21.7132 82.8492 21.4653C82.5628 21.2235 81.8865 20.8463 81.5212 21.2694Z" fill="#ABBA16"/>
<path fill-rule="evenodd" clip-rule="evenodd" d="M68.7542 13.9842C69.3291 13.9268 69.4974 13.9046 70.0295 14.0691C70.5195 14.2206 70.8501 14.2069 70.9974 13.7983C70.6412 13.5542 70.3624 13.6008 69.9694 13.5067L71.0756 13.5955C71.0388 12.1103 69.1615 13.1287 68.7542 13.9842Z" fill="#ABBA16"/>
<path fill-rule="evenodd" clip-rule="evenodd" d="M77.9458 7.82008C78.0841 7.5492 77.8263 7.2791 77.6227 6.91717C77.8196 7.11765 77.9939 7.44438 78.1826 7.62113C78.4291 7.19493 78.027 6.70981 77.8196 6.53382C77.5182 6.27672 77.1357 6.15735 76.657 6.10303C77.1658 7.32654 77.1334 8.01596 77.9458 7.82008Z" fill="#ABBA16"/>
<path fill-rule="evenodd" clip-rule="evenodd" d="M84.6279 10.3277C85.0006 10.2275 85.1817 10.1012 85.6086 10.0867C85.2907 10.1854 84.8714 10.2818 84.6579 10.5466C84.8984 10.8909 85.2892 11.0768 85.7536 10.7111C86.2526 10.3193 86.1842 10.3882 86.7606 10.0875C86.194 9.66203 84.8699 9.35213 84.6279 10.3277Z" fill="#ABBA16"/>
<path fill-rule="evenodd" clip-rule="evenodd" d="M74.0347 21.255C74.0941 20.8457 74.1242 20.5717 74.3 20.2366C74.8103 19.2664 74.3586 18.9695 74.0686 19.5969C73.9641 19.8219 73.9648 19.8884 73.9025 20.1249C73.9077 19.6535 74.0347 19.5594 74.1535 19.1638C72.8962 19.1975 73.2742 20.5664 74.0347 21.255Z" fill="#ABBA16"/>
<path fill-rule="evenodd" clip-rule="evenodd" d="M78.8981 13.1618L79.6361 13.1327L78.9567 13.438C79.2896 14.2927 79.8758 13.7272 80.707 13.2857L80.9272 13.1334C80.5995 13.0171 80.0163 12.5596 79.3242 12.848L79.0754 13.0041C79.0619 13.0156 79.0439 13.0324 79.0311 13.0432C79.0183 13.0539 78.998 13.0722 78.9868 13.0822C78.9747 13.0929 78.9514 13.1136 78.9424 13.122C78.9326 13.1304 78.9139 13.1503 78.8981 13.1618Z" fill="#ABBA16"/>
<path fill-rule="evenodd" clip-rule="evenodd" d="M83.584 13.6293C83.9094 13.5413 84.1612 13.4457 84.5249 13.4242C84.1747 13.4671 83.8621 13.5666 83.6261 13.7984C84.0492 14.5689 84.6662 13.8344 84.9668 13.6454C85.1246 13.5459 85.2591 13.5092 85.4094 13.4181C84.8698 13.1036 83.8357 12.7754 83.584 13.6293Z" fill="#ABBA16"/>
<path fill-rule="evenodd" clip-rule="evenodd" d="M78.092 13.2162C78.2701 12.9637 78.1168 13.1557 78.3024 13.0302L78.3061 11.6506C77.7275 11.8588 77.1699 12.5222 77.4614 13.3179C77.6012 13.1427 77.6674 12.8229 77.7636 12.5872L77.6411 13.3891C77.9372 13.3516 77.8951 13.3906 78.092 13.2162Z" fill="#ABBA16"/>
<path fill-rule="evenodd" clip-rule="evenodd" d="M82.4769 10.8649L82.2462 10.1219C82.3259 10.1923 82.298 10.1532 82.3755 10.2519L82.5769 10.6177C82.6979 10.8075 82.5919 10.6858 82.7317 10.7891C83.3149 10.0086 82.3416 9.49596 81.4188 9.45923C81.5247 9.67118 81.4375 9.50514 81.5285 9.64517C82.1816 10.656 81.8065 10.8442 82.4769 10.8649Z" fill="#ABBA16"/>
<path fill-rule="evenodd" clip-rule="evenodd" d="M81.856 8.04113L81.965 8.00899C82.4888 7.81846 82.3716 6.85435 81.7681 6.3501C81.3961 7.23999 81.2082 7.81464 81.856 8.04113Z" fill="#ABBA16"/>
<path fill-rule="evenodd" clip-rule="evenodd" d="M74.1162 16.595C74.3665 16.3149 74.25 16.2109 74.6716 15.7395C74.7738 15.6255 74.9309 15.5023 74.8828 15.2712C74.8084 14.9147 74.7527 15.119 74.5025 15.2651C74.6302 15.0577 74.8226 14.9147 74.4356 14.881C74.2041 14.8611 74.0636 15.0049 73.9787 15.2016C73.7712 15.6814 74.0042 16.1703 74.1162 16.595Z" fill="#ABBA16"/>
<path fill-rule="evenodd" clip-rule="evenodd" d="M78.9013 10.238C79.0982 10.1798 79.02 10.215 79.1433 10.0651C79.2034 9.99085 79.2214 9.92045 79.2981 9.82251L79.144 10.3773C80.1578 10.5693 79.7738 9.04356 79.3777 8.76733C79.014 9.8447 78.7683 9.62509 78.9013 10.238Z" fill="#ABBA16"/>
<path fill-rule="evenodd" clip-rule="evenodd" d="M81.8479 13.9269L82.1515 13.5481C82.0952 13.7662 82.0629 13.7876 81.9982 14.0095C82.5927 13.8266 82.737 13.0148 82.4063 12.47C82.392 12.4868 82.371 12.4899 82.365 12.5197C82.3116 12.763 82.3567 12.5281 82.2853 12.6154C81.9021 13.0852 81.2956 13.428 81.8479 13.9269Z" fill="#ABBA16"/>
<path fill-rule="evenodd" clip-rule="evenodd" d="M81.8566 16.5567L82.4496 16.4021C82.1828 16.5422 82.1249 16.4519 81.9062 16.722C82.0911 16.9936 82.3113 17.09 82.6803 16.8383C82.9719 16.6386 82.9651 16.6011 83.3484 16.3968C83.3093 16.3402 83.3447 16.3448 83.2439 16.2736C83.2011 16.2438 83.0981 16.1956 83.0253 16.1703C82.9073 16.1305 82.7043 16.093 82.5683 16.0953C82.1467 16.1007 81.9754 16.2399 81.8566 16.5567Z" fill="#ABBA16"/>
<path fill-rule="evenodd" clip-rule="evenodd" d="M86.2814 18.7192L86.791 18.596C86.5595 18.7353 86.4828 18.6633 86.3077 18.9143C86.6865 19.3742 86.8368 19.1691 87.5876 18.6717C87.786 18.5401 87.6762 18.6243 87.7852 18.4973C87.2531 18.3312 86.5843 17.9923 86.2814 18.7192Z" fill="#ABBA16"/>
<path fill-rule="evenodd" clip-rule="evenodd" d="M73.9585 18.3373L74.1644 17.8644L74.0728 18.4552C74.8964 18.3488 74.6003 17.8254 74.7529 17.0273C74.3177 17.1452 73.561 17.7734 73.9585 18.3373Z" fill="#ABBA16"/>
<path fill-rule="evenodd" clip-rule="evenodd" d="M73.0806 17.8483C73.1956 17.6548 73.1603 17.6578 73.1768 17.3831C73.1843 17.4091 73.2069 17.5415 73.2099 17.5484C73.3572 17.9325 73.0566 17.2645 73.2647 17.68L73.3542 17.8147C73.5458 17.1291 73.3023 16.6157 72.7687 16.3149C72.7995 17.0771 72.3629 17.6601 73.0806 17.8483Z" fill="#ABBA16"/>
<path fill-rule="evenodd" clip-rule="evenodd" d="M83.5535 18.1522C83.6106 18.0864 83.6159 18.0818 83.6662 18.0038L83.7549 18.2502C84.6846 18.1874 83.9766 17.0626 83.6956 16.8086C83.6445 17.4123 83.2732 17.798 83.5535 18.1522Z" fill="#ABBA16"/>
<path fill-rule="evenodd" clip-rule="evenodd" d="M73.0611 11.6053L73.2678 11.6489C73.3527 11.6543 73.3271 11.6244 73.4729 11.6535C73.0814 11.727 73.1423 11.7155 73.0739 11.9527C73.2986 12.0943 73.4624 12.1769 73.781 11.994C73.899 11.9267 74.3146 11.6864 74.4228 11.6122C74.0531 11.3321 73.3625 11.1202 73.0611 11.6053Z" fill="#ABBA16"/>
<path fill-rule="evenodd" clip-rule="evenodd" d="M82.0876 11.9772C82.289 11.6443 82.02 11.9274 82.1365 11.7637L82.274 11.6864C82.1267 11.2334 81.8389 11.14 81.3549 11.1079C81.7382 11.9244 81.6367 11.9772 82.0876 11.9772Z" fill="#ABBA16"/>
<path fill-rule="evenodd" clip-rule="evenodd" d="M80.5909 11.9682L80.4345 11.4647L80.769 11.855C80.7908 11.3155 80.4909 11.1196 80.0009 11.0454C80.167 11.5703 80.0595 11.897 80.5909 11.9682Z" fill="#ABBA16"/>
<path fill-rule="evenodd" clip-rule="evenodd" d="M0 13.7195V11.0735L2.00205 11.1171V10.5968C2.00205 7.86437 3.30143 6.49854 5.89944 6.49854C6.85838 6.49854 7.60388 6.62861 8.09312 6.9102C8.58311 7.19178 8.83863 7.58279 8.83863 8.12454C8.83863 8.55839 8.68983 9.03509 8.41252 9.5776C7.88044 9.29602 7.26269 9.14375 6.56002 9.14375C5.98511 9.14375 5.58004 9.27383 5.32452 9.51256C5.06901 9.77273 4.94125 10.1844 4.94125 10.7269V11.1386L8.07208 11.0735V13.7195L5.15468 13.6545V21.9597H2.00205V13.6759L0 13.7195Z" fill="#ABBA16"/>
<path fill-rule="evenodd" clip-rule="evenodd" d="M18.0184 21.9809H16.1441C15.1002 21.9809 14.5253 21.3956 14.3975 20.2463C13.6949 21.5257 12.5661 22.1546 11.0112 22.1546C10.053 22.1546 9.24364 21.8731 8.58305 21.3091C7.92322 20.7666 7.58203 19.9861 7.58203 18.9891C7.58203 16.5383 9.32856 15.3025 12.8427 15.3025H14.3765C14.3765 14.6299 14.2059 14.131 13.8865 13.828C13.5671 13.5457 13.0553 13.3942 12.3527 13.3942C11.0323 13.3942 9.90347 13.7194 8.94528 14.3484C8.62589 13.9145 8.4553 13.372 8.4553 12.7438C8.4553 12.2013 8.64693 11.8325 9.00916 11.5945C9.86139 11.0956 11.0751 10.8354 12.63 10.8354C14.1631 10.8354 15.3557 11.2035 16.229 11.9625C17.0812 12.7216 17.5073 13.7844 17.5073 15.1939V19.4222C17.5073 20.5715 17.6772 21.4178 18.0184 21.9809ZM11.7349 19.7046C12.7788 19.7046 13.6731 19.2493 14.3975 18.3165V17.1458H12.9283C11.3306 17.1458 10.5212 17.6447 10.5212 18.6417C10.5212 18.9669 10.6279 19.2271 10.8624 19.4222C11.0961 19.6173 11.3734 19.7046 11.7349 19.7046Z" fill="#ABBA16"/>
<path fill-rule="evenodd" clip-rule="evenodd" d="M22.3421 12.939C22.6187 12.3965 23.0658 11.9198 23.6415 11.5074C24.2164 11.0957 24.8552 10.8784 25.5578 10.8784C26.1327 10.8784 26.6017 11.0521 26.985 11.3773C27.3682 11.7025 27.5599 12.2014 27.5599 12.8304C27.5599 13.503 27.4111 14.1534 27.1338 14.7601C26.5799 14.2398 25.8772 13.9797 25.004 13.9797C23.918 13.9797 23.0448 14.4135 22.3421 15.259V21.9596H19.1474V11.0735H20.425C21.0856 11.0735 21.5538 11.2258 21.8311 11.5296C22.1076 11.8548 22.2782 12.3101 22.3421 12.939Z" fill="#ABBA16"/>
<path fill-rule="evenodd" clip-rule="evenodd" d="M41.468 20.095V15.0639C41.468 14.0447 41.0419 13.5244 40.2114 13.5244C39.7214 13.5244 39.2743 13.6759 38.8482 14.0011C38.4228 14.3263 38.1027 14.6951 37.869 15.1076V21.9597H34.7381V15.0639C34.7381 14.0447 34.312 13.5244 33.4816 13.5244C32.9916 13.5244 32.5444 13.6759 32.1183 14.0011C31.6922 14.3263 31.3728 14.6951 31.1383 15.1076V21.9597H28.0075V11.0735H29.2212C29.8818 11.0735 30.35 11.2036 30.6273 11.486C30.9039 11.7676 31.0745 12.2014 31.1383 12.809C31.9688 11.5296 33.1832 10.8784 34.7381 10.8784C36.2284 10.8784 37.1873 11.5946 37.6127 13.0041C37.9967 12.3529 38.5077 11.8326 39.1676 11.4424C39.8282 11.0735 40.5519 10.8784 41.3613 10.8784C42.4051 10.8784 43.2145 11.2036 43.7684 11.8762C44.3215 12.5488 44.5988 13.5244 44.5988 14.7602V21.9597H43.4062C42.1068 21.9597 41.468 21.3307 41.468 20.095Z" fill="#ABBA16"/>
<path fill-rule="evenodd" clip-rule="evenodd" d="M47.1324 20.6804C46.1532 19.6612 45.6632 18.2732 45.6632 16.5171C45.6632 14.7603 46.1532 13.3722 47.1324 12.353C48.0914 11.3338 49.4757 10.8357 51.2432 10.8357C52.4148 10.8357 53.3941 11.0086 54.1824 11.3774C54.5018 11.5297 54.7152 11.6812 54.843 11.8763C54.949 12.0714 55.0128 12.3752 55.0128 12.744C55.0128 13.3072 54.864 13.8711 54.5657 14.4351C53.6503 13.8283 52.6486 13.5245 51.5198 13.5245C49.7522 13.5245 48.8579 14.5215 48.8579 16.5171C48.8579 17.4491 49.0924 18.1653 49.5606 18.707C50.0295 19.2495 50.7322 19.5097 51.6475 19.5097C52.6914 19.5097 53.7353 19.1845 54.7363 18.5119C55.0346 19.0758 55.1834 19.6398 55.1834 20.2037C55.1834 20.5717 55.1196 20.8319 54.9918 21.027C54.864 21.2229 54.6506 21.418 54.353 21.5695C53.6075 21.9812 52.5847 22.1985 51.3282 22.1985C49.5177 22.1985 48.1124 21.6996 47.1324 20.6804Z" fill="#293737"/>
<path fill-rule="evenodd" clip-rule="evenodd" d="M59.2722 12.939C59.5495 12.3965 59.9967 11.9198 60.5716 11.5074C61.1465 11.0957 61.7853 10.8784 62.4887 10.8784C63.0636 10.8784 63.5318 11.0521 63.9158 11.3773C64.2991 11.7025 64.4907 12.2014 64.4907 12.8304C64.4907 13.503 64.3412 14.1534 64.0646 14.7601C63.5108 14.2398 62.8081 13.9797 61.9348 13.9797C60.8489 13.9797 59.9749 14.4135 59.2722 15.259V21.9596H56.0775V11.0735H57.3558C58.0157 11.0735 58.4846 11.2258 58.7612 11.5296C59.0377 11.8548 59.2083 12.3101 59.2722 12.939Z" fill="#293737"/>
<path fill-rule="evenodd" clip-rule="evenodd" d="M101.246 17.0541L99.9258 21.6513H95.5595L92.6421 10.7659H96.2201L97.2422 15.1029C97.6044 16.5774 97.8171 17.9654 97.8599 19.2876H97.9448C98.0515 17.9868 98.3499 16.5123 98.8181 14.9078L100.117 10.7659H103.547L104.824 14.9078C105.229 16.5123 105.485 17.9868 105.592 19.2876H105.655C105.698 17.9432 105.868 16.5338 106.187 15.0379L107.444 10.7659H111.022L107.848 21.6513H103.802L102.503 17.0541L101.885 13.4111H101.842C101.672 14.9728 101.481 16.1871 101.246 17.0541Z" fill="#293737"/>
<path fill-rule="evenodd" clip-rule="evenodd" d="M118.305 17.3144V14.7128C117.667 13.7364 116.943 13.2597 116.133 13.2597C115.473 13.2597 114.962 13.5198 114.558 14.0187C114.152 14.5176 113.961 15.2545 113.961 16.2087C113.961 17.1628 114.152 17.9005 114.536 18.3986C114.919 18.8975 115.43 19.1577 116.091 19.1577C116.56 19.1577 116.985 18.9847 117.39 18.6159C117.794 18.2471 118.093 17.8132 118.305 17.3144ZM121.415 8.29369V19.1148C121.415 20.2641 121.586 21.1096 121.926 21.6736H119.967C118.923 21.6736 118.348 21.0874 118.22 19.9389C117.518 21.2397 116.474 21.8901 115.132 21.8901C113.812 21.8901 112.747 21.3912 111.959 20.3942C111.17 19.4178 110.766 18.0084 110.766 16.2087C110.766 14.409 111.17 12.9995 111.98 12.0017C112.789 11.0261 113.854 10.5272 115.175 10.5272C115.878 10.5272 116.474 10.6787 117.007 11.0039C117.518 11.3299 117.922 11.7416 118.22 12.1969V6.42896H119.477C120.776 6.42896 121.415 7.05717 121.415 8.29369Z" fill="#293737"/>
<path fill-rule="evenodd" clip-rule="evenodd" d="M133.47 10.7659V20.3941C133.47 22.2588 132.98 23.6897 132 24.6875C130.999 25.6631 129.636 26.162 127.869 26.162C126.271 26.162 125.185 25.9669 124.567 25.5552C124.035 25.1864 123.758 24.6875 123.758 24.0585C123.758 23.2995 123.928 22.6927 124.248 22.2588C125.057 23.0179 126.122 23.3867 127.421 23.3867C128.38 23.3867 129.082 23.1916 129.572 22.8006C130.041 22.4103 130.275 21.7385 130.275 20.7843V19.7437C129.381 21.0223 128.231 21.6513 126.804 21.6513C125.59 21.6513 124.674 21.261 124.014 20.4805C123.353 19.7001 123.034 18.5508 123.034 17.0541V10.7659H124.291C125.59 10.7659 126.229 11.3941 126.229 12.6306V16.7511C126.229 18.1605 126.761 18.876 127.848 18.876C128.933 18.876 129.743 18.3985 130.275 17.4229V10.7659H133.47Z" fill="#293737"/>
</svg>
