<svg width="57" height="52" viewBox="0 0 57 52" fill="none" xmlns="http://www.w3.org/2000/svg">
<path d="M20.2933 32.5275C20.2933 32.0858 19.9352 31.7278 19.4935 31.7278H9.22955C7.51113 31.7278 5.8778 31.0853 4.63028 29.9188C3.38169 28.7513 2.66201 27.1859 2.60411 25.5113C2.60112 25.4235 2.59952 25.3355 2.59952 25.2471C2.59952 21.2824 5.72691 17.9712 9.71933 17.7087C9.94817 17.6936 10.1595 17.581 10.2997 17.3996C10.4399 17.2181 10.4955 16.9853 10.4523 16.76C10.3071 16.0025 10.2355 15.2271 10.2397 14.4556C10.2508 12.4253 10.7948 10.4201 11.8129 8.65653C12.0337 8.27403 11.9027 7.7849 11.5202 7.56406C11.1375 7.34311 10.6484 7.47427 10.4277 7.85688C9.27093 9.86055 8.65287 12.1392 8.64018 14.4468C8.63698 15.0353 8.6726 15.6259 8.74639 16.2108C4.3381 16.9204 1 20.7342 1 25.247C1 25.3539 1.00181 25.4602 1.00544 25.5664C1.07827 27.6675 1.97752 29.6281 3.5377 31.0871C5.08252 32.5317 7.10389 33.3273 9.22945 33.3273H19.4934C19.9352 33.3273 20.2933 32.9692 20.2933 32.5275Z" fill="#ABBA16"/>
<path d="M47.1553 16.1232C46.9463 11.2563 42.8887 7.36102 37.9309 7.36102C36.6754 7.36102 35.4291 7.61652 34.2826 8.1047C32.0213 3.94199 27.7511 1.24913 22.9544 1.01603C19.01 0.824619 15.1678 2.35483 12.4158 5.2151C12.1096 5.53341 12.1194 6.03971 12.4377 6.34596C12.7561 6.65222 13.2623 6.64241 13.5685 6.3241C16.0002 3.79675 19.3933 2.44462 22.8769 2.61363C27.3514 2.83106 31.3064 5.47102 33.1984 9.50332C33.2916 9.70209 33.4626 9.85383 33.6709 9.92282C33.8793 9.99181 34.107 9.97209 34.3005 9.86844C35.4078 9.27437 36.6633 8.96044 37.931 8.96044C42.1401 8.96044 45.5645 12.3507 45.5645 16.518C45.5645 16.6136 45.5618 16.7175 45.5558 16.8547C45.5462 17.0727 45.6262 17.2851 45.777 17.4427C45.9279 17.6004 46.1366 17.6895 46.3548 17.6895C46.3605 17.6895 46.3675 17.6894 46.3746 17.6892C50.5789 17.6948 53.9976 21.0831 53.9976 25.247C53.9976 25.3354 53.996 25.4235 53.993 25.511C53.935 27.1859 53.2154 28.7513 51.9668 29.9188C50.7193 31.0854 49.086 31.7278 47.3677 31.7278H43.8579C44.2317 30.6771 44.4523 29.697 44.4523 28.8451C44.4523 23.0314 39.7225 18.3016 33.9087 18.3016C28.095 18.3016 23.3652 23.0314 23.3652 28.8451C23.3652 29.697 23.5857 30.6771 23.9596 31.7278H22.6926C22.251 31.7278 21.8929 32.0858 21.8929 32.5275C21.8929 32.9692 22.251 33.3273 22.6926 33.3273H24.5979C24.6043 33.3273 24.6106 33.3264 24.617 33.3263C25.9942 36.3149 28.2606 39.6161 30.1354 42.1153C27.096 42.3084 24.335 42.7348 22.2685 43.3367C19.5286 44.1346 18.1393 45.1985 18.1393 46.4987C18.1393 47.9315 19.8189 49.0734 23.1316 49.8925C26.0199 50.6067 29.8473 51 33.9086 51C37.9699 51 41.7973 50.6066 44.6857 49.8925C47.9983 49.0734 49.6779 47.9316 49.6779 46.4987C49.6779 45.203 48.2983 44.1419 45.5772 43.3449C43.5084 42.739 40.7351 42.3095 37.6817 42.1154C39.5563 39.6164 41.8225 36.3155 43.1998 33.3272H47.3676C49.493 33.3272 51.5144 32.5316 53.0593 31.087C54.6195 29.628 55.5188 27.6674 55.5916 25.5661C55.5952 25.4602 55.5971 25.3538 55.5971 25.2469C55.5971 20.4622 51.8774 16.5228 47.1553 16.1232ZM36.5473 43.6552C39.8932 43.8044 42.9404 44.2393 45.1276 44.88C47.5364 45.5855 48.0785 46.3031 48.0785 46.4988C48.0785 46.7342 47.3846 47.5776 44.3018 48.3398C41.5354 49.0238 37.8444 49.4006 33.9087 49.4006C29.973 49.4006 26.2821 49.0238 23.5157 48.3398C20.4328 47.5776 19.739 46.7342 19.739 46.4988C19.739 46.3018 20.2858 45.5802 22.7158 44.8724C24.9124 44.2327 27.9653 43.8001 31.3156 43.6534C32.4031 45.0401 33.1915 45.963 33.3021 46.0916C33.454 46.2685 33.6756 46.3702 33.9088 46.3702C34.1419 46.3702 34.3636 46.2684 34.5155 46.0916C34.6261 45.9629 35.4153 45.039 36.5038 43.651C36.5182 43.6525 36.5325 43.6546 36.5473 43.6552ZM33.9085 44.3234C33.0391 43.2672 31.3596 41.1693 29.6937 38.7697C26.5999 34.3134 24.9646 30.8816 24.9646 28.8451C24.9646 23.9133 28.9769 19.9011 33.9086 19.9011C38.8404 19.9011 42.8526 23.9133 42.8526 28.8451C42.8526 30.8798 41.2199 34.3079 38.1312 38.7588C36.464 41.161 34.7797 43.2649 33.9085 44.3234Z" fill="#ABBA16"/>
<path d="M33.9086 24.2626C31.69 24.2626 29.885 26.0676 29.885 28.2862C29.885 30.5049 31.69 32.3099 33.9086 32.3099C36.1273 32.3099 37.9323 30.5049 37.9323 28.2862C37.9323 26.0676 36.1273 24.2626 33.9086 24.2626ZM33.9086 30.7104C32.5719 30.7104 31.4845 29.6229 31.4845 28.2862C31.4845 26.9495 32.5719 25.8621 33.9086 25.8621C35.2453 25.8621 36.3328 26.9495 36.3328 28.2862C36.3328 29.6229 35.2453 30.7104 33.9086 30.7104Z" fill="#ABBA16"/>
<path d="M20.2933 32.5275C20.2933 32.0858 19.9352 31.7278 19.4935 31.7278H9.22955C7.51113 31.7278 5.8778 31.0853 4.63028 29.9188C3.38169 28.7513 2.66201 27.1859 2.60411 25.5113C2.60112 25.4235 2.59952 25.3355 2.59952 25.2471C2.59952 21.2824 5.72691 17.9712 9.71933 17.7087C9.94817 17.6936 10.1595 17.581 10.2997 17.3996C10.4399 17.2181 10.4955 16.9853 10.4523 16.76C10.3071 16.0025 10.2355 15.2271 10.2397 14.4556C10.2508 12.4253 10.7948 10.4201 11.8129 8.65653C12.0337 8.27403 11.9027 7.7849 11.5202 7.56406C11.1375 7.34311 10.6484 7.47427 10.4277 7.85688C9.27093 9.86055 8.65287 12.1392 8.64018 14.4468C8.63698 15.0353 8.6726 15.6259 8.74639 16.2108C4.3381 16.9204 1 20.7342 1 25.247C1 25.3539 1.00181 25.4602 1.00544 25.5664C1.07827 27.6675 1.97752 29.6281 3.5377 31.0871C5.08252 32.5317 7.10389 33.3273 9.22945 33.3273H19.4934C19.9352 33.3273 20.2933 32.9692 20.2933 32.5275Z" stroke="#ABBA16"/>
<path d="M47.1553 16.1232C46.9463 11.2563 42.8887 7.36102 37.9309 7.36102C36.6754 7.36102 35.4291 7.61652 34.2826 8.1047C32.0213 3.94199 27.7511 1.24913 22.9544 1.01603C19.01 0.824619 15.1678 2.35483 12.4158 5.2151C12.1096 5.53341 12.1194 6.03971 12.4377 6.34596C12.7561 6.65222 13.2623 6.64241 13.5685 6.3241C16.0002 3.79675 19.3933 2.44462 22.8769 2.61363C27.3514 2.83106 31.3064 5.47102 33.1984 9.50332C33.2916 9.70209 33.4626 9.85383 33.6709 9.92282C33.8793 9.99181 34.107 9.97209 34.3005 9.86844C35.4078 9.27437 36.6633 8.96044 37.931 8.96044C42.1401 8.96044 45.5645 12.3507 45.5645 16.518C45.5645 16.6136 45.5618 16.7175 45.5558 16.8547C45.5462 17.0727 45.6262 17.2851 45.777 17.4427C45.9279 17.6004 46.1366 17.6895 46.3548 17.6895C46.3605 17.6895 46.3675 17.6894 46.3746 17.6892C50.5789 17.6948 53.9976 21.0831 53.9976 25.247C53.9976 25.3354 53.996 25.4235 53.993 25.511C53.935 27.1859 53.2154 28.7513 51.9668 29.9188C50.7193 31.0854 49.086 31.7278 47.3677 31.7278H43.8579C44.2317 30.6771 44.4523 29.697 44.4523 28.8451C44.4523 23.0314 39.7225 18.3016 33.9087 18.3016C28.095 18.3016 23.3652 23.0314 23.3652 28.8451C23.3652 29.697 23.5857 30.6771 23.9596 31.7278H22.6926C22.251 31.7278 21.8929 32.0858 21.8929 32.5275C21.8929 32.9692 22.251 33.3273 22.6926 33.3273H24.5979C24.6043 33.3273 24.6106 33.3264 24.617 33.3263C25.9942 36.3149 28.2606 39.6161 30.1354 42.1153C27.096 42.3084 24.335 42.7348 22.2685 43.3367C19.5286 44.1346 18.1393 45.1985 18.1393 46.4987C18.1393 47.9315 19.8189 49.0734 23.1316 49.8925C26.0199 50.6067 29.8473 51 33.9086 51C37.9699 51 41.7973 50.6066 44.6857 49.8925C47.9983 49.0734 49.6779 47.9316 49.6779 46.4987C49.6779 45.203 48.2983 44.1419 45.5772 43.3449C43.5084 42.739 40.7351 42.3095 37.6817 42.1154C39.5563 39.6164 41.8225 36.3155 43.1998 33.3272H47.3676C49.493 33.3272 51.5144 32.5316 53.0593 31.087C54.6195 29.628 55.5188 27.6674 55.5916 25.5661C55.5952 25.4602 55.5971 25.3538 55.5971 25.2469C55.5971 20.4622 51.8774 16.5228 47.1553 16.1232ZM36.5473 43.6552C39.8932 43.8044 42.9404 44.2393 45.1276 44.88C47.5364 45.5855 48.0785 46.3031 48.0785 46.4988C48.0785 46.7342 47.3846 47.5776 44.3018 48.3398C41.5354 49.0238 37.8444 49.4006 33.9087 49.4006C29.973 49.4006 26.2821 49.0238 23.5157 48.3398C20.4328 47.5776 19.739 46.7342 19.739 46.4988C19.739 46.3018 20.2858 45.5802 22.7158 44.8724C24.9124 44.2327 27.9653 43.8001 31.3156 43.6534C32.4031 45.0401 33.1915 45.963 33.3021 46.0916C33.454 46.2685 33.6756 46.3702 33.9088 46.3702C34.1419 46.3702 34.3636 46.2684 34.5155 46.0916C34.6261 45.9629 35.4153 45.039 36.5038 43.651C36.5182 43.6525 36.5325 43.6546 36.5473 43.6552ZM33.9085 44.3234C33.0391 43.2672 31.3596 41.1693 29.6937 38.7697C26.5999 34.3134 24.9646 30.8816 24.9646 28.8451C24.9646 23.9133 28.9769 19.9011 33.9086 19.9011C38.8404 19.9011 42.8526 23.9133 42.8526 28.8451C42.8526 30.8798 41.2199 34.3079 38.1312 38.7588C36.464 41.161 34.7797 43.2649 33.9085 44.3234Z" stroke="#ABBA16"/>
<path d="M33.9086 24.2626C31.69 24.2626 29.885 26.0676 29.885 28.2862C29.885 30.5049 31.69 32.3099 33.9086 32.3099C36.1273 32.3099 37.9323 30.5049 37.9323 28.2862C37.9323 26.0676 36.1273 24.2626 33.9086 24.2626ZM33.9086 30.7104C32.5719 30.7104 31.4845 29.6229 31.4845 28.2862C31.4845 26.9495 32.5719 25.8621 33.9086 25.8621C35.2453 25.8621 36.3328 26.9495 36.3328 28.2862C36.3328 29.6229 35.2453 30.7104 33.9086 30.7104Z" stroke="#ABBA16"/>
</svg>
