<svg width="52" height="52" viewBox="0 0 52 52" fill="none" xmlns="http://www.w3.org/2000/svg">
<path d="M6.44289 41.3275C7.50548 40.4791 8.8343 40.049 10.3923 40.049C10.5997 40.049 10.7986 39.9667 10.9452 39.82C11.0918 39.6734 11.1742 39.4745 11.1742 39.2672C11.1742 39.0598 11.0918 38.8609 10.9452 38.7143C10.7986 38.5676 10.5997 38.4853 10.3923 38.4853C8.47092 38.4853 6.8139 39.0303 5.46719 40.1054C5.30955 40.2362 5.20954 40.4237 5.18866 40.6274C5.16777 40.8312 5.22769 41.035 5.35552 41.1951C5.48334 41.3551 5.66887 41.4586 5.87221 41.4833C6.07556 41.508 6.28047 41.452 6.44289 41.3271V41.3275Z" fill="#ABBA16"/>
<path d="M38.2217 39.2018C36.4104 40.0099 35.4128 41.4219 35.4128 43.1766C35.4128 43.384 35.4952 43.5829 35.6418 43.7295C35.7885 43.8761 35.9873 43.9585 36.1947 43.9585C36.4021 43.9585 36.601 43.8761 36.7476 43.7295C36.8942 43.5829 36.9766 43.384 36.9766 43.1766C36.9766 42.0283 37.5923 41.1952 38.8591 40.6297C38.9535 40.5883 39.0389 40.5286 39.1101 40.4541C39.1814 40.3796 39.2373 40.2917 39.2744 40.1955C39.3116 40.0993 39.3294 39.9968 39.3268 39.8937C39.3242 39.7906 39.3012 39.689 39.2591 39.5949C39.2171 39.5007 39.1568 39.4158 39.0819 39.345C39.0069 39.2742 38.9186 39.219 38.8222 39.1824C38.7258 39.1459 38.6231 39.1288 38.52 39.1321C38.4169 39.1354 38.3155 39.1591 38.2217 39.2018Z" fill="#ABBA16"/>
<path d="M45.8633 37.8255C48.4234 39.0557 49.4806 41.1531 49.4893 41.1714C49.5819 41.3542 49.7426 41.4933 49.9367 41.5588C50.1308 41.6243 50.3429 41.611 50.5273 41.5218C50.7117 41.4325 50.8537 41.2745 50.9228 41.0816C50.9919 40.8887 50.9825 40.6765 50.8967 40.4904C50.8458 40.385 49.6125 37.8926 46.54 36.4161C46.4474 36.3709 46.3467 36.3444 46.2438 36.3382C46.1409 36.3321 46.0378 36.3463 45.9404 36.3801C45.843 36.4139 45.7533 36.4667 45.6764 36.5353C45.5995 36.604 45.5369 36.6871 45.4922 36.78C45.4476 36.873 45.4217 36.9738 45.4162 37.0767C45.4107 37.1797 45.4256 37.2827 45.46 37.3799C45.4944 37.477 45.5477 37.5664 45.6168 37.6429C45.6859 37.7194 45.7695 37.7815 45.8627 37.8255H45.8633Z" fill="#ABBA16"/>
<path d="M40.8799 36.1421C40.8643 36.0406 40.8289 35.9432 40.7756 35.8554C40.7224 35.7676 40.6524 35.6911 40.5696 35.6304C40.4868 35.5697 40.3929 35.5258 40.2931 35.5014C40.1934 35.4769 40.0898 35.4724 39.9883 35.488C36.1541 36.0767 32.2853 38.6825 32.2853 43.1766C32.2853 44.8356 31.6262 46.4266 30.4532 47.5996C29.2801 48.7727 27.6891 49.4317 26.0301 49.4317C24.3712 49.4317 22.7802 48.7727 21.6071 47.5996C20.434 46.4266 19.775 44.8356 19.775 43.1766C19.775 38.299 15.0837 35.3577 10.3923 35.3577C3.73051 35.3577 1.19679 40.2721 1.09221 40.4812C0.631779 41.4022 2.0213 42.1028 2.48984 41.1832C2.5782 41.0091 4.72488 36.9215 10.3923 36.9215C13.639 36.9215 18.2112 38.8621 18.2112 43.1766C18.2112 45.2503 19.035 47.2391 20.5013 48.7054C21.9677 50.1717 23.9564 50.9955 26.0301 50.9955C28.1038 50.9955 30.0926 50.1717 31.5589 48.7054C33.0253 47.2391 33.849 45.2503 33.849 43.1766C33.849 39.6092 37.0518 37.521 40.2257 37.0336C40.4307 37.0021 40.6148 36.8905 40.7374 36.7233C40.8601 36.5562 40.9114 36.3471 40.8799 36.1421Z" fill="#ABBA16"/>
<path d="M21.2158 14.4106C21.3005 14.5322 23.3172 17.3973 25.6998 18.1164C26.3222 18.3083 26.9813 18.3498 27.6228 18.2374C27.5108 18.872 27.5511 19.5242 27.7405 20.1402C28.4552 22.5073 31.3163 24.5053 31.4378 24.5892C31.5344 24.656 31.6449 24.7001 31.761 24.7183C31.877 24.7366 31.9957 24.7284 32.1082 24.6944C32.2207 24.6605 32.324 24.6016 32.4106 24.5222C32.4972 24.4428 32.5648 24.3449 32.6084 24.2358C32.6631 24.099 33.9406 20.8514 33.226 18.484C32.8009 17.0759 31.8112 16.3067 30.9829 15.8951L33.3514 13.5266C34.8966 14.9768 35.0078 15.4143 35.5628 15.4143C35.7173 15.4138 35.8681 15.3677 35.9964 15.2817C36.1247 15.1957 36.2247 15.0737 36.2838 14.931C36.3429 14.7884 36.3585 14.6314 36.3286 14.4799C36.2987 14.3283 36.2246 14.1891 36.1157 14.0795L31.6931 9.65695C31.6206 9.58362 31.5344 9.52534 31.4394 9.48545C31.3443 9.44557 31.2423 9.42487 31.1392 9.42455C31.0361 9.42424 30.934 9.4443 30.8387 9.4836C30.7434 9.5229 30.6569 9.58065 30.584 9.65354C30.5111 9.72642 30.4533 9.813 30.414 9.90829C30.3747 10.0036 30.3546 10.1057 30.3549 10.2088C30.3552 10.3119 30.3759 10.4139 30.4158 10.5089C30.4557 10.604 30.514 10.6902 30.5873 10.7626L32.2462 12.4213L29.9042 14.7633C29.4754 13.9597 28.7073 13.0389 27.356 12.631C24.9739 11.9119 21.7083 13.182 21.57 13.2369C21.4604 13.2803 21.362 13.3479 21.2822 13.4347C21.2023 13.5215 21.1432 13.6252 21.1091 13.7381C21.0751 13.851 21.067 13.9701 21.0854 14.0865C21.1039 14.203 21.1485 14.3138 21.2158 14.4106ZM29.6353 17.3485C29.7406 17.2703 29.8325 17.1968 29.9105 17.1305C32.2189 17.9668 32.1572 20.2563 31.4875 22.6418C29.6985 21.091 28.3597 19.2987 29.6353 17.3485ZM28.7322 15.955C28.6665 16.0319 28.5934 16.1223 28.5165 16.2255C26.5574 17.4975 24.7384 16.1669 23.1711 14.3604C25.5692 13.6975 27.8822 13.6391 28.7322 15.955Z" fill="#ABBA16"/>
<path d="M22.294 31.2192C22.3666 31.2919 22.4528 31.3495 22.5476 31.3888C22.6425 31.428 22.7442 31.4483 22.8469 31.4483C22.9495 31.4483 23.0512 31.428 23.1461 31.3888C23.2409 31.3495 23.3271 31.2919 23.3998 31.2192C23.7626 30.8559 24.1934 30.5676 24.6678 30.371C25.1421 30.1743 25.6505 30.0731 26.164 30.0731C26.6775 30.0731 27.1859 30.1743 27.6602 30.371C28.1345 30.5676 28.5654 30.8559 28.9282 31.2192C29.0749 31.3658 29.2738 31.448 29.4812 31.448C29.6885 31.448 29.8874 31.3658 30.0341 31.2192L43.8572 17.3974C44.4429 16.8104 44.7718 16.0151 44.7718 15.1859C44.7718 14.3567 44.4429 13.5614 43.8572 12.9744L32.7991 1.91653C32.5087 1.62597 32.164 1.39547 31.7845 1.23821C31.4051 1.08094 30.9983 1 30.5876 1C30.1768 1 29.7701 1.08094 29.3906 1.23821C29.0112 1.39547 28.6664 1.62597 28.3761 1.91653L25.7528 4.53977C25.6062 4.68641 25.5238 4.88531 25.5237 5.09271C25.5237 5.30011 25.6061 5.49903 25.7527 5.64571C25.8993 5.79238 26.0982 5.8748 26.3056 5.87483C26.513 5.87485 26.712 5.79249 26.8586 5.64585C29.3314 3.34465 29.514 2.56481 30.5876 2.56481C31.7544 2.56481 31.1432 2.69989 42.7512 14.0805C43.044 14.374 43.2084 14.7716 43.2084 15.1862C43.2084 15.6008 43.044 15.9984 42.7512 16.2919L29.4424 29.5997C28.496 28.8919 27.3459 28.5095 26.1641 28.5095C24.9823 28.5095 23.8323 28.8919 22.8859 29.5997L12.8944 19.6085L15.1059 17.3969C24.2575 26.4254 23.8889 26.4723 24.5052 26.4723C24.6597 26.4719 24.8105 26.4258 24.9388 26.3398C25.0671 26.2538 25.1671 26.1318 25.2262 25.9891C25.2853 25.8464 25.3009 25.6894 25.271 25.5379C25.2411 25.3864 25.167 25.2471 25.0581 25.1376L16.2116 16.2911L21.3388 11.1647C21.4854 11.0181 21.5678 10.8192 21.5678 10.6118C21.5678 10.4045 21.4854 10.2056 21.3388 10.0589C21.1921 9.9123 20.9933 9.82993 20.7859 9.82993C20.5785 9.82993 20.3796 9.9123 20.233 10.0589L11.2364 19.0556C11.1638 19.1282 11.1062 19.2144 11.0669 19.3092C11.0276 19.4041 11.0073 19.5058 11.0073 19.6085C11.0073 19.7111 11.0276 19.8128 11.0669 19.9077C11.1062 20.0026 11.1638 20.0888 11.2364 20.1614L22.294 31.2192Z" fill="#ABBA16"/>
<path d="M25.2482 33.7939C25.6801 33.7939 26.0301 33.4439 26.0301 33.012C26.0301 32.5802 25.6801 32.2301 25.2482 32.2301C24.8164 32.2301 24.4663 32.5802 24.4663 33.012C24.4663 33.4439 24.8164 33.7939 25.2482 33.7939Z" fill="#ABBA16"/>
<path d="M23.6845 8.77342C24.1163 8.77342 24.4663 8.42335 24.4663 7.99153C24.4663 7.5597 24.1163 7.20963 23.6845 7.20963C23.2526 7.20963 22.9026 7.5597 22.9026 7.99153C22.9026 8.42335 23.2526 8.77342 23.6845 8.77342Z" fill="#ABBA16"/>
<path d="M28.3758 36.9215C28.8076 36.9215 29.1577 36.5714 29.1577 36.1396C29.1577 35.7078 28.8076 35.3577 28.3758 35.3577C27.944 35.3577 27.5939 35.7078 27.5939 36.1396C27.5939 36.5714 27.944 36.9215 28.3758 36.9215Z" fill="#ABBA16"/>
<path d="M43.2317 36.9215C43.6636 36.9215 44.0136 36.5714 44.0136 36.1396C44.0136 35.7078 43.6636 35.3577 43.2317 35.3577C42.7999 35.3577 42.4498 35.7078 42.4498 36.1396C42.4498 36.5714 42.7999 36.9215 43.2317 36.9215Z" fill="#ABBA16"/>
<path d="M25.2482 40.049C25.6801 40.049 26.0301 39.699 26.0301 39.2672C26.0301 38.8353 25.6801 38.4853 25.2482 38.4853C24.8164 38.4853 24.4663 38.8353 24.4663 39.2672C24.4663 39.699 24.8164 40.049 25.2482 40.049Z" fill="#ABBA16"/>
<path d="M22.1207 43.1766C22.5525 43.1766 22.9026 42.8265 22.9026 42.3947C22.9026 41.9629 22.5525 41.6128 22.1207 41.6128C21.6889 41.6128 21.3388 41.9629 21.3388 42.3947C21.3388 42.8265 21.6889 43.1766 22.1207 43.1766Z" fill="#ABBA16"/>
<path d="M26.812 43.1766C27.2438 43.1766 27.5939 42.8265 27.5939 42.3947C27.5939 41.9629 27.2438 41.6128 26.812 41.6128C26.3802 41.6128 26.0301 41.9629 26.0301 42.3947C26.0301 42.8265 26.3802 43.1766 26.812 43.1766Z" fill="#ABBA16"/>
<path d="M28.3758 46.3042C28.8076 46.3042 29.1577 45.9541 29.1577 45.5223C29.1577 45.0905 28.8076 44.7404 28.3758 44.7404C27.944 44.7404 27.5939 45.0905 27.5939 45.5223C27.5939 45.9541 27.944 46.3042 28.3758 46.3042Z" fill="#ABBA16"/>
<path d="M25.2482 47.868C25.6801 47.868 26.0301 47.5179 26.0301 47.0861C26.0301 46.6542 25.6801 46.3042 25.2482 46.3042C24.8164 46.3042 24.4663 46.6542 24.4663 47.0861C24.4663 47.5179 24.8164 47.868 25.2482 47.868Z" fill="#ABBA16"/>
<path d="M10.3923 41.6128C9.63075 41.6103 8.88518 41.8313 8.24798 42.2484C7.61078 42.6654 7.10995 43.2603 6.80754 43.9593C6.0937 43.9774 5.41515 44.2735 4.91637 44.7845C4.4176 45.2955 4.13803 45.981 4.13719 46.6951C4.13719 49.3374 7.6557 50.236 7.6557 48.6498C7.6557 48.4425 7.57332 48.2436 7.42669 48.097C7.28005 47.9503 7.08118 47.868 6.87381 47.868C6.56275 47.868 6.26444 47.7444 6.04449 47.5244C5.82454 47.3045 5.70097 47.0062 5.70097 46.6951C5.70097 46.3841 5.82454 46.0857 6.04449 45.8658C6.26444 45.6458 6.56275 45.5223 6.87381 45.5223C7.14747 45.5223 7.39787 45.6868 7.75578 45.4689C7.84431 45.415 7.92124 45.3441 7.98208 45.2602C8.04292 45.1763 8.08646 45.0811 8.11017 44.9802C8.24305 44.421 8.57666 43.93 9.04766 43.6004C9.51866 43.2709 10.0943 43.1258 10.6652 43.1927C11.2361 43.2596 11.7626 43.5338 12.1447 43.9632C12.5268 44.3926 12.7379 44.9474 12.738 45.5223C12.738 45.7296 12.8204 45.9285 12.967 46.0752C13.1136 46.2218 13.3125 46.3042 13.5199 46.3042C15.3022 46.3042 14.0274 41.6128 10.3923 41.6128Z" fill="#ABBA16"/>
<path d="M48.6698 44.8498C48.358 42.9888 46.768 41.6128 44.7955 41.6128C41.0849 41.6128 39.912 46.3042 41.6679 46.3042C41.8753 46.3042 42.0742 46.2218 42.2208 46.0752C42.3675 45.9285 42.4498 45.7296 42.4498 45.5223C42.4498 42.3909 47.1615 42.4134 47.1615 45.5223C47.1615 45.7296 47.2439 45.9285 47.3905 46.0752C47.5372 46.2218 47.736 46.3042 47.9434 46.3042C48.6358 46.3042 49.4869 47.284 49.4869 48.0812C49.4869 48.7751 48.7269 49.4317 47.9231 49.4317C47.7157 49.4317 47.5168 49.5141 47.3702 49.6607C47.2236 49.8074 47.1412 50.0063 47.1412 50.2136C47.1412 51.9045 51.0506 50.7195 51.0506 48.0812C51.0506 46.7881 50.0384 45.2653 48.6698 44.8498Z" fill="#ABBA16"/>
<path d="M6.44289 41.3275C7.50548 40.4791 8.8343 40.049 10.3923 40.049C10.5997 40.049 10.7986 39.9667 10.9452 39.82C11.0918 39.6734 11.1742 39.4745 11.1742 39.2672C11.1742 39.0598 11.0918 38.8609 10.9452 38.7143C10.7986 38.5676 10.5997 38.4853 10.3923 38.4853C8.47092 38.4853 6.8139 39.0303 5.46719 40.1054C5.30955 40.2362 5.20954 40.4237 5.18866 40.6274C5.16777 40.8312 5.22769 41.035 5.35552 41.1951C5.48334 41.3551 5.66887 41.4586 5.87221 41.4833C6.07556 41.508 6.28047 41.452 6.44289 41.3271V41.3275Z" stroke="#ABBA16"/>
<path d="M38.2217 39.2018C36.4104 40.0099 35.4128 41.4219 35.4128 43.1766C35.4128 43.384 35.4952 43.5829 35.6418 43.7295C35.7885 43.8761 35.9873 43.9585 36.1947 43.9585C36.4021 43.9585 36.601 43.8761 36.7476 43.7295C36.8942 43.5829 36.9766 43.384 36.9766 43.1766C36.9766 42.0283 37.5923 41.1952 38.8591 40.6297C38.9535 40.5883 39.0389 40.5286 39.1101 40.4541C39.1814 40.3796 39.2373 40.2917 39.2744 40.1955C39.3116 40.0993 39.3294 39.9968 39.3268 39.8937C39.3242 39.7906 39.3012 39.689 39.2591 39.5949C39.2171 39.5007 39.1568 39.4158 39.0819 39.345C39.0069 39.2742 38.9186 39.219 38.8222 39.1824C38.7258 39.1459 38.6231 39.1288 38.52 39.1321C38.4169 39.1354 38.3155 39.1591 38.2217 39.2018Z" stroke="#ABBA16"/>
<path d="M45.8633 37.8255C48.4234 39.0557 49.4806 41.1531 49.4893 41.1714C49.5819 41.3542 49.7426 41.4933 49.9367 41.5588C50.1308 41.6243 50.3429 41.611 50.5273 41.5218C50.7117 41.4325 50.8537 41.2745 50.9228 41.0816C50.9919 40.8887 50.9825 40.6765 50.8967 40.4904C50.8458 40.385 49.6125 37.8926 46.54 36.4161C46.4474 36.3709 46.3467 36.3444 46.2438 36.3382C46.1409 36.3321 46.0378 36.3463 45.9404 36.3801C45.843 36.4139 45.7533 36.4667 45.6764 36.5353C45.5995 36.604 45.5369 36.6871 45.4922 36.78C45.4476 36.873 45.4217 36.9738 45.4162 37.0767C45.4107 37.1797 45.4256 37.2827 45.46 37.3799C45.4944 37.477 45.5477 37.5664 45.6168 37.6429C45.6859 37.7194 45.7695 37.7815 45.8627 37.8255H45.8633Z" stroke="#ABBA16"/>
<path d="M40.8799 36.1421C40.8643 36.0406 40.8289 35.9432 40.7756 35.8554C40.7224 35.7676 40.6524 35.6911 40.5696 35.6304C40.4868 35.5697 40.3929 35.5258 40.2931 35.5014C40.1934 35.4769 40.0898 35.4724 39.9883 35.488C36.1541 36.0767 32.2853 38.6825 32.2853 43.1766C32.2853 44.8356 31.6262 46.4266 30.4532 47.5996C29.2801 48.7727 27.6891 49.4317 26.0301 49.4317C24.3712 49.4317 22.7802 48.7727 21.6071 47.5996C20.434 46.4266 19.775 44.8356 19.775 43.1766C19.775 38.299 15.0837 35.3577 10.3923 35.3577C3.73051 35.3577 1.19679 40.2721 1.09221 40.4812C0.631779 41.4022 2.0213 42.1028 2.48984 41.1832C2.5782 41.0091 4.72488 36.9215 10.3923 36.9215C13.639 36.9215 18.2112 38.8621 18.2112 43.1766C18.2112 45.2503 19.035 47.2391 20.5013 48.7054C21.9677 50.1717 23.9564 50.9955 26.0301 50.9955C28.1038 50.9955 30.0926 50.1717 31.5589 48.7054C33.0253 47.2391 33.849 45.2503 33.849 43.1766C33.849 39.6092 37.0518 37.521 40.2257 37.0336C40.4307 37.0021 40.6148 36.8905 40.7374 36.7233C40.8601 36.5562 40.9114 36.3471 40.8799 36.1421Z" stroke="#ABBA16"/>
<path d="M21.2158 14.4106C21.3005 14.5322 23.3172 17.3973 25.6998 18.1164C26.3222 18.3083 26.9813 18.3498 27.6228 18.2374C27.5108 18.872 27.5511 19.5242 27.7405 20.1402C28.4552 22.5073 31.3163 24.5053 31.4378 24.5892C31.5344 24.656 31.6449 24.7001 31.761 24.7183C31.877 24.7366 31.9957 24.7284 32.1082 24.6944C32.2207 24.6605 32.324 24.6016 32.4106 24.5222C32.4972 24.4428 32.5648 24.3449 32.6084 24.2358C32.6631 24.099 33.9406 20.8514 33.226 18.484C32.8009 17.0759 31.8112 16.3067 30.9829 15.8951L33.3514 13.5266C34.8966 14.9768 35.0078 15.4143 35.5628 15.4143C35.7173 15.4138 35.8681 15.3677 35.9964 15.2817C36.1247 15.1957 36.2247 15.0737 36.2838 14.931C36.3429 14.7884 36.3585 14.6314 36.3286 14.4799C36.2987 14.3283 36.2246 14.1891 36.1157 14.0795L31.6931 9.65695C31.6206 9.58362 31.5344 9.52534 31.4394 9.48545C31.3443 9.44557 31.2423 9.42487 31.1392 9.42455C31.0361 9.42424 30.934 9.4443 30.8387 9.4836C30.7434 9.5229 30.6569 9.58065 30.584 9.65354C30.5111 9.72642 30.4533 9.813 30.414 9.90829C30.3747 10.0036 30.3546 10.1057 30.3549 10.2088C30.3552 10.3119 30.3759 10.4139 30.4158 10.5089C30.4557 10.604 30.514 10.6902 30.5873 10.7626L32.2462 12.4213L29.9042 14.7633C29.4754 13.9597 28.7073 13.0389 27.356 12.631C24.9739 11.9119 21.7083 13.182 21.57 13.2369C21.4604 13.2803 21.362 13.3479 21.2822 13.4347C21.2023 13.5215 21.1432 13.6252 21.1091 13.7381C21.0751 13.851 21.067 13.9701 21.0854 14.0865C21.1039 14.203 21.1485 14.3138 21.2158 14.4106ZM29.6353 17.3485C29.7406 17.2703 29.8325 17.1968 29.9105 17.1305C32.2189 17.9668 32.1572 20.2563 31.4875 22.6418C29.6985 21.091 28.3597 19.2987 29.6353 17.3485ZM28.7322 15.955C28.6665 16.0319 28.5934 16.1223 28.5165 16.2255C26.5574 17.4975 24.7384 16.1669 23.1711 14.3604C25.5692 13.6975 27.8822 13.6391 28.7322 15.955Z" stroke="#ABBA16"/>
<path d="M22.294 31.2192C22.3666 31.2919 22.4528 31.3495 22.5476 31.3888C22.6425 31.428 22.7442 31.4483 22.8469 31.4483C22.9495 31.4483 23.0512 31.428 23.1461 31.3888C23.2409 31.3495 23.3271 31.2919 23.3998 31.2192C23.7626 30.8559 24.1934 30.5676 24.6678 30.371C25.1421 30.1743 25.6505 30.0731 26.164 30.0731C26.6775 30.0731 27.1859 30.1743 27.6602 30.371C28.1345 30.5676 28.5654 30.8559 28.9282 31.2192C29.0749 31.3658 29.2738 31.448 29.4812 31.448C29.6885 31.448 29.8874 31.3658 30.0341 31.2192L43.8572 17.3974C44.4429 16.8104 44.7718 16.0151 44.7718 15.1859C44.7718 14.3567 44.4429 13.5614 43.8572 12.9744L32.7991 1.91653C32.5087 1.62597 32.164 1.39547 31.7845 1.23821C31.4051 1.08094 30.9983 1 30.5876 1C30.1768 1 29.7701 1.08094 29.3906 1.23821C29.0112 1.39547 28.6664 1.62597 28.3761 1.91653L25.7528 4.53977C25.6062 4.68641 25.5238 4.88531 25.5237 5.09271C25.5237 5.30011 25.6061 5.49903 25.7527 5.64571C25.8993 5.79238 26.0982 5.8748 26.3056 5.87483C26.513 5.87485 26.712 5.79249 26.8586 5.64585C29.3314 3.34465 29.514 2.56481 30.5876 2.56481C31.7544 2.56481 31.1432 2.69989 42.7512 14.0805C43.044 14.374 43.2084 14.7716 43.2084 15.1862C43.2084 15.6008 43.044 15.9984 42.7512 16.2919L29.4424 29.5997C28.496 28.8919 27.3459 28.5095 26.1641 28.5095C24.9823 28.5095 23.8323 28.8919 22.8859 29.5997L12.8944 19.6085L15.1059 17.3969C24.2575 26.4254 23.8889 26.4723 24.5052 26.4723C24.6597 26.4719 24.8105 26.4258 24.9388 26.3398C25.0671 26.2538 25.1671 26.1318 25.2262 25.9891C25.2853 25.8464 25.3009 25.6894 25.271 25.5379C25.2411 25.3864 25.167 25.2471 25.0581 25.1376L16.2116 16.2911L21.3388 11.1647C21.4854 11.0181 21.5678 10.8192 21.5678 10.6118C21.5678 10.4045 21.4854 10.2056 21.3388 10.0589C21.1921 9.9123 20.9933 9.82993 20.7859 9.82993C20.5785 9.82993 20.3796 9.9123 20.233 10.0589L11.2364 19.0556C11.1638 19.1282 11.1062 19.2144 11.0669 19.3092C11.0276 19.4041 11.0073 19.5058 11.0073 19.6085C11.0073 19.7111 11.0276 19.8128 11.0669 19.9077C11.1062 20.0026 11.1638 20.0888 11.2364 20.1614L22.294 31.2192Z" stroke="#ABBA16"/>
<path d="M25.2482 33.7939C25.6801 33.7939 26.0301 33.4439 26.0301 33.012C26.0301 32.5802 25.6801 32.2301 25.2482 32.2301C24.8164 32.2301 24.4663 32.5802 24.4663 33.012C24.4663 33.4439 24.8164 33.7939 25.2482 33.7939Z" stroke="#ABBA16"/>
<path d="M23.6845 8.77342C24.1163 8.77342 24.4663 8.42335 24.4663 7.99153C24.4663 7.5597 24.1163 7.20963 23.6845 7.20963C23.2526 7.20963 22.9026 7.5597 22.9026 7.99153C22.9026 8.42335 23.2526 8.77342 23.6845 8.77342Z" stroke="#ABBA16"/>
<path d="M28.3758 36.9215C28.8076 36.9215 29.1577 36.5714 29.1577 36.1396C29.1577 35.7078 28.8076 35.3577 28.3758 35.3577C27.944 35.3577 27.5939 35.7078 27.5939 36.1396C27.5939 36.5714 27.944 36.9215 28.3758 36.9215Z" stroke="#ABBA16"/>
<path d="M43.2317 36.9215C43.6636 36.9215 44.0136 36.5714 44.0136 36.1396C44.0136 35.7078 43.6636 35.3577 43.2317 35.3577C42.7999 35.3577 42.4498 35.7078 42.4498 36.1396C42.4498 36.5714 42.7999 36.9215 43.2317 36.9215Z" stroke="#ABBA16"/>
<path d="M25.2482 40.049C25.6801 40.049 26.0301 39.699 26.0301 39.2672C26.0301 38.8353 25.6801 38.4853 25.2482 38.4853C24.8164 38.4853 24.4663 38.8353 24.4663 39.2672C24.4663 39.699 24.8164 40.049 25.2482 40.049Z" stroke="#ABBA16"/>
<path d="M22.1207 43.1766C22.5525 43.1766 22.9026 42.8265 22.9026 42.3947C22.9026 41.9629 22.5525 41.6128 22.1207 41.6128C21.6889 41.6128 21.3388 41.9629 21.3388 42.3947C21.3388 42.8265 21.6889 43.1766 22.1207 43.1766Z" stroke="#ABBA16"/>
<path d="M26.812 43.1766C27.2438 43.1766 27.5939 42.8265 27.5939 42.3947C27.5939 41.9629 27.2438 41.6128 26.812 41.6128C26.3802 41.6128 26.0301 41.9629 26.0301 42.3947C26.0301 42.8265 26.3802 43.1766 26.812 43.1766Z" stroke="#ABBA16"/>
<path d="M28.3758 46.3042C28.8076 46.3042 29.1577 45.9541 29.1577 45.5223C29.1577 45.0905 28.8076 44.7404 28.3758 44.7404C27.944 44.7404 27.5939 45.0905 27.5939 45.5223C27.5939 45.9541 27.944 46.3042 28.3758 46.3042Z" stroke="#ABBA16"/>
<path d="M25.2482 47.868C25.6801 47.868 26.0301 47.5179 26.0301 47.0861C26.0301 46.6542 25.6801 46.3042 25.2482 46.3042C24.8164 46.3042 24.4663 46.6542 24.4663 47.0861C24.4663 47.5179 24.8164 47.868 25.2482 47.868Z" stroke="#ABBA16"/>
<path d="M10.3923 41.6128C9.63075 41.6103 8.88518 41.8313 8.24798 42.2484C7.61078 42.6654 7.10995 43.2603 6.80754 43.9593C6.0937 43.9774 5.41515 44.2735 4.91637 44.7845C4.4176 45.2955 4.13803 45.981 4.13719 46.6951C4.13719 49.3374 7.6557 50.236 7.6557 48.6498C7.6557 48.4425 7.57332 48.2436 7.42669 48.097C7.28005 47.9503 7.08118 47.868 6.87381 47.868C6.56275 47.868 6.26444 47.7444 6.04449 47.5244C5.82454 47.3045 5.70097 47.0062 5.70097 46.6951C5.70097 46.3841 5.82454 46.0857 6.04449 45.8658C6.26444 45.6458 6.56275 45.5223 6.87381 45.5223C7.14747 45.5223 7.39787 45.6868 7.75578 45.4689C7.84431 45.415 7.92124 45.3441 7.98208 45.2602C8.04292 45.1763 8.08646 45.0811 8.11017 44.9802C8.24305 44.421 8.57666 43.93 9.04766 43.6004C9.51866 43.2709 10.0943 43.1258 10.6652 43.1927C11.2361 43.2596 11.7626 43.5338 12.1447 43.9632C12.5268 44.3926 12.7379 44.9474 12.738 45.5223C12.738 45.7296 12.8204 45.9285 12.967 46.0752C13.1136 46.2218 13.3125 46.3042 13.5199 46.3042C15.3022 46.3042 14.0274 41.6128 10.3923 41.6128Z" stroke="#ABBA16"/>
<path d="M48.6698 44.8498C48.358 42.9888 46.768 41.6128 44.7955 41.6128C41.0849 41.6128 39.912 46.3042 41.6679 46.3042C41.8753 46.3042 42.0742 46.2218 42.2208 46.0752C42.3675 45.9285 42.4498 45.7296 42.4498 45.5223C42.4498 42.3909 47.1615 42.4134 47.1615 45.5223C47.1615 45.7296 47.2439 45.9285 47.3905 46.0752C47.5372 46.2218 47.736 46.3042 47.9434 46.3042C48.6358 46.3042 49.4869 47.284 49.4869 48.0812C49.4869 48.7751 48.7269 49.4317 47.9231 49.4317C47.7157 49.4317 47.5168 49.5141 47.3702 49.6607C47.2236 49.8074 47.1412 50.0063 47.1412 50.2136C47.1412 51.9045 51.0506 50.7195 51.0506 48.0812C51.0506 46.7881 50.0384 45.2653 48.6698 44.8498Z" stroke="#ABBA16"/>
</svg>
