<svg width="54" height="50" viewBox="0 0 54 50" fill="none" xmlns="http://www.w3.org/2000/svg">
<path d="M12.4639 49.9999C12.0338 49.9999 11.6391 49.7269 11.4871 49.3245C11.3316 48.9126 11.4593 48.4284 11.8012 48.1499C12.1447 47.8701 12.6373 47.8383 13.0142 48.0707C13.369 48.2896 13.5623 48.7157 13.493 49.1269C13.409 49.6239 12.9689 49.9999 12.4639 49.9999Z" fill="#ABBA16"/>
<path d="M52.3815 33.5457C51.5736 32.7378 50.4994 32.2928 49.3568 32.2928C48.8602 32.2928 48.3763 32.3769 47.9219 32.5383C47.8205 32.4471 47.72 32.3577 47.6815 32.3262C45.9754 30.9308 43.5125 31.0546 41.9525 32.6145L37.0227 37.5445C36.6103 37.9565 34.9277 38.924 34.4382 38.9853H31.4289C30.9011 38.9853 30.6936 38.5833 30.6426 38.46C30.5994 38.3557 30.4942 38.0309 30.6893 37.7072L33.0728 37.0168C34.3614 36.6435 35.3561 35.6496 35.7336 34.3579C36.1034 33.0921 35.8093 31.7494 34.9459 30.7655C34.9056 30.7196 34.8642 30.6741 34.8218 30.6293C34.1301 29.8988 32.8571 29.8228 30.4286 30.3665C28.7175 30.7496 26.7403 31.3895 25.383 31.8589C22.4362 32.8781 20.1506 35.145 19.1368 38.008H18.077V37.1895C18.077 36.6131 17.6097 36.1459 17.0334 36.1459H1.04361C0.467226 36.1459 0 36.6131 0 37.1895V48.9564C0 49.5328 0.467226 50 1.04361 50H7.72651C8.30289 50 8.77012 49.5328 8.77012 48.9564C8.77012 48.38 8.30289 47.9128 7.72651 47.9128H2.08723V38.2331H15.9895V48.9564C15.9895 49.5328 16.4568 50 17.0331 50C17.6095 50 18.0768 49.5328 18.0768 48.9564V48.1379H21.1959C24.2647 49.1844 27.435 49.7115 30.6483 49.7115C31.3535 49.7114 32.0612 49.6861 32.7699 49.6353C36.7513 49.3495 40.5617 48.2752 44.095 46.4422C44.9414 46.0032 45.2458 45.793 45.4229 45.6219L51.888 39.6212C51.8975 39.6124 51.9068 39.6034 51.9159 39.5943C52.7077 38.803 53.2454 37.7536 53.3915 36.7154C53.5631 35.4946 53.2045 34.3688 52.3815 33.5457ZM43.4283 34.0905C44.1539 33.3648 45.2609 33.2458 46.112 33.7659L41.402 38.4759C41.0735 38.8044 40.6367 38.9854 40.1722 38.9854H38.5334L43.4283 34.0905ZM43.965 44.1285C43.9694 44.1241 43.9742 44.1192 43.9796 44.1142C43.9747 44.119 43.9698 44.1237 43.965 44.1285ZM51.3246 36.425C51.2411 37.0183 50.9237 37.6298 50.4528 38.1056L43.9928 44.1017C43.9918 44.1026 43.9909 44.1035 43.99 44.1044C43.9501 44.134 43.7624 44.2638 43.134 44.5898C36.5809 47.9892 28.7984 48.5515 21.7831 46.1331L21.7106 46.108C21.6012 46.0703 21.4863 46.0511 21.3704 46.0511H18.0768V40.0957H19.9058C20.3795 40.0957 20.7938 39.7766 20.9148 39.3186C21.5894 36.7651 23.5147 34.714 26.065 33.8319C31.644 31.9026 33.1116 32.0723 33.3697 32.1343C33.3722 32.1372 33.3749 32.1402 33.3774 32.1431C33.7724 32.5932 33.901 33.1873 33.7298 33.7726C33.5537 34.3752 33.0909 34.8386 32.4918 35.0121L29.7986 35.7921C29.6296 35.8412 29.4755 35.9321 29.351 36.0567C28.4946 36.9132 28.2505 38.1402 28.714 39.259C29.1774 40.3778 30.2177 41.0727 31.4287 41.0727H40.1722C41.1943 41.0727 42.1551 40.6747 42.878 39.952L47.8082 35.0217C48.2219 34.608 48.7718 34.3802 49.3568 34.3802C49.9418 34.3802 50.492 34.6081 50.9057 35.0217C51.2641 35.3802 51.405 35.8523 51.3246 36.425Z" fill="#ABBA16"/>
<path d="M41.3545 17.3514L37.9177 12.0784V17.3514H36.7394V10.3895H38.2417L41.4036 15.3286V10.3895H42.5819V17.3514H41.3545Z" fill="#ABBA16"/>
<path d="M36.1093 12.6095H43.0712V13.5914H36.1093V12.6095Z" fill="#ABBA16"/>
<path d="M36.1093 14.3483H43.0712V15.3303H36.1093V14.3483Z" fill="#ABBA16"/>
<path d="M39.5417 23.1361C34.4441 23.1361 30.297 18.9889 30.297 13.8913C30.297 8.79371 34.4441 4.64649 39.5417 4.64649C44.6394 4.64649 48.7866 8.79371 48.7866 13.8913C48.7866 18.9889 44.6393 23.1361 39.5417 23.1361ZM39.5417 6.73372C35.5951 6.73372 32.3842 9.9446 32.3842 13.8913C32.3842 17.8381 35.5951 21.0489 39.5417 21.0489C43.4885 21.0489 46.6994 17.838 46.6994 13.8913C46.6994 9.94471 43.4885 6.73372 39.5417 6.73372Z" fill="#ABBA16"/>
<path d="M39.5418 27.7826C31.882 27.7826 25.6505 21.551 25.6505 13.8912C25.6505 6.23153 31.8821 0 39.5418 0C47.2014 0 53.4331 6.23163 53.4331 13.8912C53.4331 21.551 47.2014 27.7826 39.5418 27.7826ZM39.5418 2.08723C33.033 2.08723 27.7377 7.38253 27.7377 13.8912C27.7377 20.4 33.033 25.6954 39.5418 25.6954C46.0505 25.6954 51.3458 20.4001 51.3458 13.8912C51.3458 7.38243 46.0505 2.08723 39.5418 2.08723Z" fill="#ABBA16"/>
</svg>
